<svg width="20" height="21" viewBox="0 0 20 21" xmlns="http://www.w3.org/2000/svg">
    <g fill="none" fill-rule="evenodd">
        <path d="M0 .5h20v20H0z"/>
        <path d="M10 14.667c3.052 0 5.72 1.312 7.172 3.27l-1.535.726c-1.181-1.4-3.264-2.33-5.637-2.33-2.372 0-4.456.93-5.638 2.33l-1.534-.726c1.452-1.959 4.12-3.27 7.172-3.27zm0-12.5a4.167 4.167 0 0 1 4.167 4.166v2.5a4.167 4.167 0 0 1-3.986 4.163L10 13a4.167 4.167 0 0 1-4.167-4.167v-2.5A4.167 4.167 0 0 1 9.82 2.171L10 2.167zm0 1.666a2.5 2.5 0 0 0-2.496 2.354l-.004.146v2.5a2.5 2.5 0 0 0 4.996.147l.004-.147v-2.5a2.5 2.5 0 0 0-2.5-2.5z" fill="#222" fill-rule="nonzero"/>
    </g>
</svg>
